# xmcd CD database file
#
# Track frame offsets:
#	150
#	3001
#	17359
#	30092
#	44929
#	56499
#	76704
#	108738
#	122470
#	141409
#	159869
#	172726
#	188188
#	203760
#
# Disc length: 2917 seconds
#
# Revision: 0
# Processed by: cddbd v1.5.2PL0 Copyright (c) Steve Scherf et al.
# Submitted via: CDex 1.51
#
DISCID=9f0b630e
DTITLE=MESHUGE KLEZMER BAND - MUSIKER!
DYEAR=2008
DGENRE=Jazz
TTITLE0=intro RUMANIA
TTITLE1=GYPSY
TTITLE2=THE ROUMANIAN FANTASY
TTITLE3=TANGO
TTITLE4=TANZ! BULGAR
TTITLE5=SAM'S BULGAR
TTITLE6=DER YEMENITE TANZ
TTITLE7=RUMANIA
TTITLE8=DER NEIER DOINA
TTITLE9=DER CHOLUM FUN YID
TTITLE10=SAM SHPIELT
TTITLE11=DER ZISER BULGAR/SILKENE PAJAMAS
TTITLE12=A BULGAR
TTITLE13=PAPIROSSEN
EXTD=YEAR: 2008
EXTT0=
EXTT1=
EXTT2=
EXTT3=
EXTT4=
EXTT5=
EXTT6=
EXTT7=
EXTT8=
EXTT9=
EXTT10=
EXTT11=
EXTT12=
EXTT13=
PLAYORDER=
